<svg width="65" height="72" viewBox="0 0 65 72" fill="none" xmlns="http://www.w3.org/2000/svg">
<path d="M46.8503 46.8503C48.9448 45.7253 51.3423 45.0849 53.8955 45.0849H53.9042C54.1638 45.0849 54.285 44.7734 54.0946 44.6003C51.4393 42.2178 48.4061 40.2935 45.1192 38.9063C45.0846 38.889 45.05 38.8803 45.0154 38.863C50.3902 34.9603 53.8869 28.6172 53.8869 21.4608C53.8869 9.60542 44.297 0 32.4655 0C20.634 0 11.0528 9.60542 11.0528 21.4608C11.0528 28.6172 14.5494 34.9603 19.9329 38.863C19.8983 38.8803 19.8637 38.889 19.829 38.9063C15.9602 40.5418 12.4895 42.8869 9.50351 45.8811C6.53475 48.8439 4.17123 52.3562 2.54481 56.222C0.944601 60.0076 0.0809814 64.0636 0.000216429 68.1726C-0.00209366 68.2649 0.0141089 68.3568 0.0478699 68.4428C0.0816309 68.5288 0.132267 68.6072 0.196794 68.6733C0.261322 68.7394 0.338435 68.792 0.423591 68.8279C0.508746 68.8637 0.600221 68.8822 0.692624 68.8821H5.87703C6.2492 68.8821 6.56078 68.5793 6.56944 68.2072C6.74254 61.5266 9.41696 55.2701 14.1513 50.528C19.0414 45.6214 25.5501 42.9215 32.4741 42.9215C37.3816 42.9215 42.09 44.2801 46.1492 46.8243C46.2535 46.8898 46.3732 46.9267 46.4962 46.9312C46.6193 46.9358 46.7414 46.9079 46.8503 46.8503ZM32.4741 36.3449C28.5101 36.3449 24.7798 34.7959 21.9669 31.9835C20.5829 30.6033 19.4857 28.963 18.7385 27.157C17.9913 25.3511 17.6089 23.4151 17.6133 21.4608C17.6133 17.4888 19.1626 13.7505 21.9669 10.9381C24.7711 8.12567 28.5015 6.57669 32.4741 6.57669C36.4468 6.57669 40.1685 8.12567 42.9814 10.9381C44.3654 12.3182 45.4626 13.9585 46.2098 15.7645C46.957 17.5705 47.3394 19.5064 47.3349 21.4608C47.3349 25.4327 45.7857 29.1711 42.9814 31.9835C40.1685 34.7959 36.4382 36.3449 32.4741 36.3449ZM64.3076 56.9403H57.0373V49.6713C57.0373 49.2905 56.7257 48.979 56.3449 48.979H51.498C51.1172 48.979 50.8056 49.2905 50.8056 49.6713V56.9403H43.5354C43.1545 56.9403 42.8429 57.2518 42.8429 57.6326V62.4785C42.8429 62.8593 43.1545 63.1708 43.5354 63.1708H50.8056V70.4398C50.8056 70.8205 51.1172 71.1321 51.498 71.1321H56.3449C56.7257 71.1321 57.0373 70.8205 57.0373 70.4398V63.1708H64.3076C64.6884 63.1708 65 62.8593 65 62.4785V57.6326C65 57.2518 64.6884 56.9403 64.3076 56.9403Z" fill="#D0E7E5"/>
</svg>
