<svg width="73" height="70" viewBox="0 0 73 70" fill="none" xmlns="http://www.w3.org/2000/svg">
<path d="M66.684 2L59.8507 8.83333M59.8507 8.83333L70.1007 19.0833L58.1424 31.0417L47.8924 20.7917M59.8507 8.83333L47.8924 20.7917M33.8499 34.8342C35.614 36.5748 37.0165 38.6473 37.9764 40.9322C38.9363 43.2171 39.4347 45.6693 39.4431 48.1477C39.4514 50.626 38.9693 53.0815 38.0247 55.3728C37.0802 57.6641 35.6917 59.7459 33.9392 61.4983C32.1867 63.2508 30.1049 64.6393 27.8137 65.5839C25.5224 66.5285 23.0669 67.0105 20.5885 67.0022C18.1102 66.9939 15.658 66.4954 13.3731 65.5355C11.0882 64.5756 9.01572 63.1732 7.27504 61.409C3.85199 57.8649 1.9579 53.118 2.00071 48.1909C2.04353 43.2638 4.01982 38.5506 7.50395 35.0665C10.9881 31.5824 15.7013 29.6061 20.6284 29.5632C25.5555 29.5204 30.3023 31.4145 33.8465 34.8376L33.8499 34.8342ZM33.8499 34.8342L47.8924 20.7917" stroke="#6B778D" stroke-width="4" stroke-linecap="round" stroke-linejoin="round"/>
</svg>
