<svg width="113" height="119" viewBox="0 0 113 119" fill="none" xmlns="http://www.w3.org/2000/svg">
<path d="M108.567 97.1136C105.732 90.4336 101.619 84.366 96.4555 79.2486C91.3079 74.1165 85.2101 70.0247 78.4988 67.1991C78.4387 67.1692 78.3786 67.1543 78.3185 67.1244C87.68 60.397 93.7657 49.4388 93.7657 37.0754C93.7657 16.5942 77.0863 0 56.5 0C35.9137 0 19.2343 16.5942 19.2343 37.0754C19.2343 49.4388 25.32 60.397 34.6815 67.1393C34.6214 67.1692 34.5613 67.1842 34.5012 67.2141C27.7693 70.0396 21.7287 74.091 16.5445 79.2636C11.3861 84.3849 7.27327 90.4515 4.43319 97.1285C1.6431 103.665 0.138348 110.674 0.000375753 117.774C-0.0036349 117.934 0.0244951 118.092 0.0831091 118.241C0.141723 118.39 0.229635 118.525 0.341664 118.639C0.453693 118.753 0.587572 118.844 0.735414 118.906C0.883256 118.968 1.04207 119 1.2025 119H10.2184C10.8796 119 11.4055 118.477 11.4205 117.834C11.721 106.293 16.3793 95.4841 24.6138 87.2916C33.1338 78.8151 44.4488 74.1508 56.5 74.1508C68.5513 74.1508 79.8662 78.8151 88.3862 87.2916C96.6208 95.4841 101.279 106.293 101.579 117.834C101.595 118.492 102.12 119 102.782 119H111.798C111.958 119 112.117 118.968 112.265 118.906C112.412 118.844 112.546 118.753 112.658 118.639C112.77 118.525 112.858 118.39 112.917 118.241C112.976 118.092 113.004 117.934 113 117.774C112.849 110.628 111.362 103.677 108.567 97.1136ZM56.5 62.7889C49.6028 62.7889 43.1114 60.1129 38.2278 55.2543C33.3442 50.3956 30.6544 43.9373 30.6544 37.0754C30.6544 30.2134 33.3442 23.7552 38.2278 18.8965C43.1114 14.0378 49.6028 11.3618 56.5 11.3618C63.3972 11.3618 69.8886 14.0378 74.7722 18.8965C79.6558 23.7552 82.3456 30.2134 82.3456 37.0754C82.3456 43.9373 79.6558 50.3956 74.7722 55.2543C69.8886 60.1129 63.3972 62.7889 56.5 62.7889Z" fill="#D0E7E5"/>
</svg>
